<?xml version="1.0" encoding="UTF-8" standalone="no"?>
<!-- Created with Inkscape (http://www.inkscape.org/) -->

<svg
   width="500mm"
   height="500mm"
   viewBox="0 0 500 500"
   version="1.1"
   id="svg1"
   inkscape:version="1.3.2 (091e20e, 2023-11-25, custom)"
   sodipodi:docname="nightmoon_icon.svg"
   inkscape:export-filename="nightmoon_icon.png"
   inkscape:export-xdpi="25.4"
   inkscape:export-ydpi="25.4"
   xmlns:inkscape="http://www.inkscape.org/namespaces/inkscape"
   xmlns:sodipodi="http://sodipodi.sourceforge.net/DTD/sodipodi-0.dtd"
   xmlns:xlink="http://www.w3.org/1999/xlink"
   xmlns="http://www.w3.org/2000/svg"
   xmlns:svg="http://www.w3.org/2000/svg">
  <sodipodi:namedview
     id="namedview1"
     pagecolor="#ffffff"
     bordercolor="#000000"
     borderopacity="0.25"
     inkscape:showpageshadow="2"
     inkscape:pageopacity="0.0"
     inkscape:pagecheckerboard="0"
     inkscape:deskcolor="#d1d1d1"
     inkscape:document-units="mm"
     inkscape:zoom="0.37905794"
     inkscape:cx="877.17461"
     inkscape:cy="916.7464"
     inkscape:window-width="1920"
     inkscape:window-height="1009"
     inkscape:window-x="-8"
     inkscape:window-y="-8"
     inkscape:window-maximized="1"
     inkscape:current-layer="layer1" />
  <defs
     id="defs1">
    <linearGradient
       id="linearGradient4"
       inkscape:collect="always">
      <stop
         style="stop-color:#3ecbff;stop-opacity:1;"
         offset="0"
         id="stop3" />
      <stop
         style="stop-color:#7c3ee5;stop-opacity:1;"
         offset="1"
         id="stop4" />
    </linearGradient>
    <linearGradient
       id="linearGradient1"
       inkscape:collect="always">
      <stop
         style="stop-color:#23c3ff;stop-opacity:1;"
         offset="0"
         id="stop1" />
      <stop
         style="stop-color:#6a24e2;stop-opacity:1;"
         offset="1"
         id="stop2" />
    </linearGradient>
    <linearGradient
       inkscape:collect="always"
       xlink:href="#linearGradient1"
       id="linearGradient2"
       x1="9.99999"
       y1="250"
       x2="490.00001"
       y2="250"
       gradientUnits="userSpaceOnUse"
       gradientTransform="matrix(0.92635726,0,0,0.92635731,18.410687,18.410671)" />
    <linearGradient
       inkscape:collect="always"
       xlink:href="#linearGradient4"
       id="linearGradient2-6"
       x1="9.9999905"
       y1="250"
       x2="490"
       y2="250"
       gradientUnits="userSpaceOnUse"
       gradientTransform="translate(-1.5e-6)" />
    <filter
       inkscape:collect="always"
       style="color-interpolation-filters:sRGB"
       id="filter4"
       x="-0.057654698"
       y="-0.0576547"
       width="1.1153094"
       height="1.1153094">
      <feGaussianBlur
         inkscape:collect="always"
         stdDeviation="11.53094"
         id="feGaussianBlur4" />
    </filter>
  </defs>
  <g
     inkscape:label="Layer 1"
     inkscape:groupmode="layer"
     id="layer1">
    <path
       d="M 265.9261,256.99307 Z M 277.45413,490 h -59.94684 l 8.21751,-5.96776 q 8.20879,-5.95811 17.85716,-13.35949 9.64926,-7.39463 17.85717,-13.36046 l 8.21752,-5.96777 h 15.96096 q 48.2454,-2.3524 89.16999,-30.01717 40.92544,-27.67057 64.64467,-74.81011 -49.5717,-5.10971 -93.95495,-27.81614 Q 301.09406,295.99852 265.93308,256.99598 230.99079,218.09562 210.13071,168.99219 189.27061,119.88879 185.23593,65.287128 140.8518,92.70895 115.77838,140.85598 90.704972,189.003 90.704972,245.12215 q 0,4.46376 0.34855,10.08157 0.348579,5.62069 0.993429,9.83378 l -5.14138,2.40063 q -5.150119,2.40059 -11.510619,5.12899 -6.36137,2.71874 -11.50538,5.24468 l -5.141401,2.52595 q -1.368129,-8.48408 -1.99554,-17.48585 -0.60999,-9.00468 -0.60999,-17.73457 0,-83.78296 46.181879,-149.249999 46.17662,-65.461247 119.42659,-85.86733 -6.38752,61.417822 11.43567,119.104589 17.82842,57.68774 57.42148,101.4915 39.5939,43.80474 91.73543,63.5292 52.14238,19.71772 107.65632,12.65186 -18.08812,81.0401 -77.44066,132.12763 -59.3473,51.09329 -135.07559,51.09329 z M 113.75407,451.73689 h 103.75322 q 14.4107,0 24.49741,-11.15942 10.08758,-11.16039 10.08758,-27.10271 0,-15.94328 -9.79915,-27.10269 -9.79913,-11.16041 -23.63294,-11.16041 h -29.97344 l -11.52802,-30.61009 q -8.06938,-21.04432 -25.36186,-33.47924 -17.2925,-12.43589 -38.0428,-12.43589 -28.820528,0 -48.994808,22.0007 -20.17429,22.00167 -20.17429,54.52452 0,31.8856 20.17429,54.20542 20.17428,22.31981 48.994808,22.31981 z m 0,38.26311 Q 70.569022,489.51796 40.284502,456.12451 9.9999885,422.74651 9.9999885,375.1413 q 0,-47.61098 30.2845135,-81.1606 30.28452,-33.5564 73.492218,-33.5564 31.23613,0 56.91518,18.73532 25.67295,18.72951 38.12383,50.43 l 2.88439,7.35605 h 7.09339 q 28.19834,0.7713 48.04409,23.01495 19.83967,22.23014 19.83967,53.51029 0,31.83449 -20.19694,54.17937 -20.19784,22.34587 -48.97217,22.34587 z"
       id="path1-7"
       style="display:none;opacity:1;fill:url(#linearGradient2-6);stroke-width:0.0071404;filter:url(#filter4)"
       transform="matrix(0.92635726,0,0,0.92635731,18.410694,18.410682)" />
    <path
       d="m 264.75326,256.47808 z m 10.67907,215.84767 h -55.53219 l 7.61235,-5.52828 q 7.60428,-5.51934 16.54211,-12.37566 8.93867,-6.85007 16.54212,-12.37656 l 7.61236,-5.52829 h 14.78555 q 44.69248,-2.17916 82.60327,-27.80662 37.91158,-25.63284 59.88406,-69.30089 -45.9211,-4.73342 -87.03585,-25.76769 -41.11476,-21.0307 -73.68638,-57.16099 -32.36905,-36.03563 -51.69293,-81.52295 -19.32391,-45.4873 -23.06146,-96.067941 -41.11557,25.402401 -64.34251,70.003751 -23.22694,44.60135 -23.22694,96.58773 0,4.13504 0.32289,9.33914 0.32291,5.20677 0.92027,9.10959 l -4.762754,2.22384 q -4.770849,2.22381 -10.662949,4.75128 -5.892903,2.51853 -10.658093,4.85845 l -4.762766,2.33993 q -1.267379,-7.85929 -1.848592,-16.19814 -0.565066,-8.34156 -0.565066,-16.42855 0,-77.61296 42.78092,-138.25882 42.77605,-60.64051 110.63169,-79.543834 -5.91713,56.894848 10.59351,110.333404 16.51549,53.43946 53.19281,94.01739 36.67809,40.57884 84.97978,58.85074 48.30247,18.26565 99.72821,11.72014 -16.75606,75.07209 -71.73771,122.3974 -54.97681,47.33064 -125.12826,47.33064 z M 123.7876,436.88044 h 96.11254 q 13.34946,0 22.69336,-10.33761 9.3447,-10.33851 9.3447,-25.1068 0,-14.76917 -9.07751,-25.10677 -9.0775,-10.33853 -21.89255,-10.33853 h -27.76611 l -10.67907,-28.35588 q -7.47513,-19.49456 -23.49414,-31.01374 -16.01903,-11.52008 -35.24122,-11.52008 -26.698107,0 -45.386702,20.38051 -18.688596,20.38141 -18.688596,50.50919 0,29.53746 18.688596,50.21359 18.688595,20.67612 45.386702,20.67612 z m 0,35.44531 Q 83.782812,471.87921 55.728531,440.94494 27.67425,410.02499 27.67425,365.92555 q 0,-44.10478 28.054281,-75.18371 28.054281,-31.08522 68.080049,-31.08522 28.93581,0 52.72379,17.3556 23.78232,17.35022 35.31628,46.7162 l 2.67198,6.81433 h 6.57101 q 26.12174,0.7145 44.50599,21.32007 18.37863,20.59305 18.37863,49.56965 0,29.49011 -18.70959,50.18945 -18.71041,20.70026 -45.36572,20.70026 z"
       id="path1"
       style="fill:url(#linearGradient2);stroke-width:0.00661456" />
  </g>
</svg>
