<?xml version="1.0" encoding="UTF-8" standalone="no"?>
<svg
   height="24px"
   viewBox="0 -960 960 960"
   width="24px"
   fill="#000000"
   version="1.1"
   id="svg1"
   sodipodi:docname="nightmoon_icon.svg"
   inkscape:export-filename="..\..\..\Coding\project-nightmoon.github.io\assets\nightmoon_icon.png"
   inkscape:export-xdpi="400"
   inkscape:export-ydpi="400"
   inkscape:version="1.3.2 (091e20e, 2023-11-25, custom)"
   xmlns:inkscape="http://www.inkscape.org/namespaces/inkscape"
   xmlns:sodipodi="http://sodipodi.sourceforge.net/DTD/sodipodi-0.dtd"
   xmlns:xlink="http://www.w3.org/1999/xlink"
   xmlns="http://www.w3.org/2000/svg"
   xmlns:svg="http://www.w3.org/2000/svg">
  <defs
     id="defs1">
    <linearGradient
       id="linearGradient6"
       inkscape:collect="always">
      <stop
         style="stop-color:#5194ff;stop-opacity:1;"
         offset="0"
         id="stop5" />
      <stop
         style="stop-color:#b958ff;stop-opacity:1;"
         offset="1"
         id="stop6" />
    </linearGradient>
    <linearGradient
       id="linearGradient2"
       inkscape:collect="always">
      <stop
         style="stop-color:#5194ff;stop-opacity:1;"
         offset="0"
         id="stop2" />
      <stop
         style="stop-color:#b958ff;stop-opacity:1;"
         offset="1"
         id="stop3" />
    </linearGradient>
    <linearGradient
       inkscape:collect="always"
       xlink:href="#linearGradient6"
       id="linearGradient3"
       x1="80"
       y1="-480"
       x2="880"
       y2="-480"
       gradientUnits="userSpaceOnUse" />
    <linearGradient
       inkscape:collect="always"
       xlink:href="#linearGradient2"
       id="linearGradient4"
       gradientUnits="userSpaceOnUse"
       x1="80"
       y1="-480"
       x2="880"
       y2="-480" />
    <filter
       inkscape:collect="always"
       style="color-interpolation-filters:sRGB"
       id="filter4"
       x="-0.088537016"
       y="-0.088537016"
       width="1.177074"
       height="1.177074">
      <feGaussianBlur
         inkscape:collect="always"
         stdDeviation="29.512338"
         id="feGaussianBlur4" />
    </filter>
  </defs>
  <sodipodi:namedview
     id="namedview1"
     pagecolor="#ffffff"
     bordercolor="#000000"
     borderopacity="0.25"
     inkscape:showpageshadow="2"
     inkscape:pageopacity="0.0"
     inkscape:pagecheckerboard="0"
     inkscape:deskcolor="#d1d1d1"
     inkscape:zoom="34.708333"
     inkscape:cx="7.4765906"
     inkscape:cy="13.555822"
     inkscape:window-width="1920"
     inkscape:window-height="1009"
     inkscape:window-x="-8"
     inkscape:window-y="-8"
     inkscape:window-maximized="1"
     inkscape:current-layer="g11" />
  <g
     id="g11"
     inkscape:label="fill">
    <rect
       style="fill:#4e36ff;fill-opacity:1;stroke:none;stroke-width:40;stroke-opacity:1"
       id="rect11"
       width="180.91069"
       height="101.2529"
       x="607.92505"
       y="-345.9631" />
    <rect
       style="fill:#4e36ff;fill-opacity:1;stroke:none;stroke-width:40;stroke-opacity:1"
       id="rect10"
       width="187.382"
       height="240.85268"
       x="524.85193"
       y="-407.12747" />
    <rect
       style="fill:#4e36ff;fill-opacity:1;stroke:none;stroke-width:40;stroke-opacity:1"
       id="rect9"
       width="127.12643"
       height="330.85464"
       x="427.01437"
       y="-475.94171" />
    <rect
       style="fill:#4e36ff;fill-opacity:1;stroke:none;stroke-width:40;stroke-opacity:1"
       id="rect8"
       width="237.95461"
       height="409.08624"
       x="148.31416"
       y="-686.18921" />
    <rect
       style="fill:#4e36ff;fill-opacity:1;stroke:none;stroke-width:40;stroke-opacity:1"
       id="rect7"
       width="156.4633"
       height="413.97574"
       x="312.92657"
       y="-576.99091" />
    <rect
       style="fill:#4e36ff;fill-opacity:1;stroke:none;stroke-width:40;stroke-opacity:1"
       id="rect4"
       width="156.4633"
       height="589.99695"
       x="226.54581"
       y="-770.94019" />
  </g>
  <g
     id="g7"
     inkscape:label="moon">
    <path
       d="m 484,-80 q -84,0 -157.5,-32 -73.5,-32 -128,-86.5 Q 144,-253 112,-326.5 80,-400 80,-484 80,-630 173,-741.5 266,-853 410,-880 q -18,99 11,193.5 29,94.5 100,165.5 71,71 165.5,100 94.5,29 193.5,11 -26,144 -138,237 -112,93 -258,93 z m 0,-80 q 88,0 163,-44 75,-44 118,-121 -86,-8 -163,-43.5 -77,-35.5 -138,-96.5 -61,-61 -97,-138 -36,-77 -43,-163 -77,43 -120.5,118.5 Q 160,-572 160,-484 q 0,135 94.5,229.5 Q 349,-160 484,-160 Z m -20,-305 z"
       id="path1-3"
       style="fill:url(#linearGradient4);fill-opacity:1;filter:url(#filter4)" />
    <path
       d="M484-80q-84 0-157.5-32t-128-86.5Q144-253 112-326.5T80-484q0-146 93-257.5T410-880q-18 99 11 193.5T521-521q71 71 165.5 100T880-410q-26 144-138 237T484-80Zm0-80q88 0 163-44t118-121q-86-8-163-43.5T464-465q-61-61-97-138t-43-163q-77 43-120.5 118.5T160-484q0 135 94.5 229.5T484-160Zm-20-305Z"
       id="path1"
       style="fill:url(#linearGradient3);fill-opacity:1" />
  </g>
</svg>
